<svg width="27" height="26" viewBox="0 0 27 26" fill="none" xmlns="http://www.w3.org/2000/svg">
<path fill-rule="evenodd" clip-rule="evenodd" d="M11.9974 2.9327C12.7824 1.85759 14.379 1.83503 15.194 2.88753L20.0829 9.20076H7.42093L11.9974 2.9327ZM4.96837 9.20076C4.99558 9.14211 5.0289 9.08526 5.06848 9.03105L10.3822 1.75334C11.9521 -0.396876 15.1452 -0.441999 16.7753 1.663L22.4635 9.00846C22.5106 9.06928 22.5496 9.13382 22.5806 9.20076H25.1103C26.4047 9.20076 27.3581 10.4117 27.0545 11.6699L23.9658 24.4692C23.7491 25.3673 22.9454 26.0001 22.0216 26.0001H5.97852C5.05467 26.0001 4.25105 25.3673 4.03433 24.4692L0.945654 11.6699C0.642013 10.4117 1.59546 9.20076 2.88985 9.20076H4.96837ZM6.45521 14.042C6.35341 13.024 7.15282 12.1406 8.17589 12.1406C9.13093 12.1406 9.90514 12.9149 9.90514 13.8699V21.7226C9.90514 22.4613 9.30629 23.0602 8.56757 23.0602C7.88039 23.0602 7.30502 22.5395 7.23664 21.8557L6.45521 14.042ZM14.0001 12.1406C12.9949 12.1406 12.18 12.9555 12.18 13.9607V21.2402C12.18 22.2453 12.9949 23.0602 14.0001 23.0602C15.0052 23.0602 15.8201 22.2453 15.8201 21.2402V13.9607C15.8201 12.9555 15.0052 12.1406 14.0001 12.1406ZM18.0951 13.8699C18.0951 12.9149 18.8693 12.1406 19.8244 12.1406C20.8474 12.1406 21.6468 13.024 21.545 14.042L20.7636 21.8557C20.6952 22.5395 20.1199 23.0602 19.4327 23.0602C18.694 23.0602 18.0951 22.4613 18.0951 21.7226V13.8699Z" fill="#FCBD31"/>
</svg>
