<svg width="32" height="32" viewBox="0 0 32 32" fill="none" xmlns="http://www.w3.org/2000/svg">
<path fill-rule="evenodd" clip-rule="evenodd" d="M15.1149 4.01827C15.3111 3.7495 15.7103 3.74386 15.914 4.00698L22.5808 12.6162H8.8373L15.1149 4.01827ZM5.20623 12.6162C5.25392 12.4765 5.32319 12.3416 5.41477 12.2162L12.692 2.24923C14.0657 0.36779 16.8597 0.328309 18.286 2.17018L26.0392 12.1823C26.1434 12.3169 26.2212 12.4636 26.2732 12.6162H29.2103C30.5046 12.6162 31.4581 13.827 31.1544 15.0853L27.4421 30.4691C27.2254 31.3672 26.4217 32 25.4979 32H6.50211C5.57826 32 4.77463 31.3672 4.55791 30.4691L0.845556 15.0853C0.541915 13.827 1.49536 12.6162 2.78975 12.6162H5.20623ZM7.18497 17.1078C7.1261 16.5191 7.58838 16.0083 8.18001 16.0083H10.2751C10.8274 16.0083 11.2751 16.456 11.2751 17.0083V27.6078C11.2751 28.1601 10.8274 28.6078 10.2751 28.6078H9.24002C8.72627 28.6078 8.29611 28.2185 8.24498 27.7073L7.18497 17.1078ZM14.9 16.0083C14.3477 16.0083 13.9 16.456 13.9 17.0083V27.6078C13.9 28.1601 14.3477 28.6078 14.9 28.6078H17.1001C17.6523 28.6078 18.1001 28.1601 18.1001 27.6078V17.0083C18.1001 16.456 17.6523 16.0083 17.1001 16.0083H14.9ZM20.7251 17.0083C20.7251 16.456 21.1728 16.0083 21.7251 16.0083H23.8201C24.4118 16.0083 24.874 16.5191 24.8152 17.1078L23.7552 27.7073C23.704 28.2185 23.2739 28.6078 22.7601 28.6078H21.7251C21.1728 28.6078 20.7251 28.1601 20.7251 27.6078V17.0083Z" fill="#FCBD31"/>
</svg>
