<svg width="54" height="54" viewBox="0 0 54 54" fill="none" xmlns="http://www.w3.org/2000/svg">
<path fill-rule="evenodd" clip-rule="evenodd" d="M23.3419 4.43699C24.7156 2.5544 27.5109 2.51491 28.9372 4.35794L40.3218 19.069H12.6656L23.3419 4.43699ZM8.95196 19.069C8.95524 19.0644 8.95854 19.0598 8.96187 19.0552L20.9185 2.6687C23.4695 -0.827553 28.6609 -0.900892 31.3097 2.52189L44.0784 19.0213C44.0905 19.0371 44.1023 19.0529 44.1138 19.069H48.9236C52.1592 19.069 54.5428 22.0957 53.7842 25.2412L47.7992 50.0587C47.2577 52.3042 45.2485 53.8865 42.9386 53.8865H11.0615C8.75165 53.8865 6.74241 52.3042 6.20088 50.0587L0.215887 25.2412C-0.542679 22.0957 1.84087 19.069 5.07654 19.069H8.95196ZM11.3088 28.4604C11.1324 26.6944 12.5192 25.162 14.294 25.162H15.5186C17.1754 25.162 18.5186 26.5052 18.5186 28.162V45.0231C18.5186 46.5531 17.2783 47.7935 15.7483 47.7935C14.325 47.7935 13.1332 46.7149 12.9917 45.2986L11.3088 28.4604ZM26.2304 25.162C24.5735 25.162 23.2304 26.5052 23.2304 28.162V44.7935C23.2304 46.4503 24.5735 47.7935 26.2304 47.7935H27.7698C29.4266 47.7935 30.7698 46.4503 30.7698 44.7935V28.162C30.7698 26.5052 29.4266 25.162 27.7698 25.162H26.2304ZM35.4818 28.162C35.4818 26.5052 36.8249 25.162 38.4818 25.162H39.7064C41.4812 25.162 42.868 26.6944 42.6915 28.4604L41.0087 45.2986C40.8671 46.7149 39.6754 47.7935 38.2521 47.7935C36.7221 47.7935 35.4818 46.5532 35.4818 45.0231V28.162Z" fill="#FCBD31"/>
</svg>
