<svg width="8" height="8" viewBox="0 0 8 8" fill="none" xmlns="http://www.w3.org/2000/svg">
<path fill-rule="evenodd" clip-rule="evenodd" d="M0.159251 0.159095C-0.0528761 0.371222 -0.0528765 0.715147 0.15925 0.927274L3.23192 3.99994L0.159095 7.07277C-0.0530317 7.2849 -0.0530318 7.62882 0.159095 7.84095C0.371222 8.05308 0.715147 8.05308 0.927274 7.84095L4.0001 4.76812L7.07287 7.84089C7.28499 8.05302 7.62892 8.05302 7.84105 7.84089C8.05317 7.62876 8.05317 7.28484 7.84105 7.07271L4.76828 3.99994L7.84089 0.927334C8.05302 0.715207 8.05302 0.371281 7.84089 0.159154C7.62876 -0.0529728 7.28484 -0.0529732 7.07271 0.159154L4.0001 3.23177L0.927431 0.159095C0.715304 -0.0530317 0.371378 -0.0530318 0.159251 0.159095Z" fill="#3DE33D"/>
</svg>
